<?xml version="1.0" encoding="UTF-8"?>
<svg width="369px" height="237px" viewBox="0 0 369 237" version="1.1" xmlns="http://www.w3.org/2000/svg" xmlns:xlink="http://www.w3.org/1999/xlink">
    <!-- Generator: Sketch 41.1 (35376) - http://www.bohemiancoding.com/sketch -->
    <title>Group 7</title>
    <desc>Created with Sketch.</desc>
    <defs>
        <rect id="path-1" x="0" y="144" width="21" height="65" rx="6"></rect>
        <mask id="mask-2" maskContentUnits="userSpaceOnUse" maskUnits="objectBoundingBox" x="0" y="0" width="21" height="65" fill="white">
            <use xlink:href="#path-1"></use>
        </mask>
        <rect id="path-3" x="348" y="144" width="21" height="65" rx="6"></rect>
        <mask id="mask-4" maskContentUnits="userSpaceOnUse" maskUnits="objectBoundingBox" x="0" y="0" width="21" height="65" fill="white">
            <use xlink:href="#path-3"></use>
        </mask>
        <rect id="path-5" x="3" y="0.957446809" width="363" height="230" rx="13"></rect>
        <mask id="mask-6" maskContentUnits="userSpaceOnUse" maskUnits="objectBoundingBox" x="0" y="0" width="363" height="230" fill="white">
            <use xlink:href="#path-5"></use>
        </mask>
        <path d="M68.4681224,186.913527 C69.014223,183.647576 72.1436062,181 75.4556695,181 L293.807069,181 C297.120084,181 300.248013,183.644575 300.794616,186.913527 L308.180787,231.086473 C308.726887,234.352424 306.478261,237 303.166697,237 L66.0960411,237 C62.7807353,237 60.5353491,234.355425 61.0819516,231.086473 L68.4681224,186.913527 Z" id="path-7"></path>
        <mask id="mask-8" maskContentUnits="userSpaceOnUse" maskUnits="objectBoundingBox" x="0" y="0" width="247.262513" height="56" fill="white">
            <use xlink:href="#path-7"></use>
        </mask>
        <rect id="path-9" x="24" y="22" width="321" height="147" rx="6"></rect>
        <mask id="mask-10" maskContentUnits="userSpaceOnUse" maskUnits="objectBoundingBox" x="0" y="0" width="321" height="147" fill="white">
            <use xlink:href="#path-9"></use>
        </mask>
        <rect id="path-11" x="74" y="80" width="220" height="72" rx="6"></rect>
        <mask id="mask-12" maskContentUnits="userSpaceOnUse" maskUnits="objectBoundingBox" x="0" y="0" width="220" height="72" fill="white">
            <use xlink:href="#path-11"></use>
        </mask>
        <rect id="path-13" x="24" y="22" width="321" height="52"></rect>
        <mask id="mask-14" maskContentUnits="userSpaceOnUse" maskUnits="objectBoundingBox" x="0" y="0" width="321" height="52" fill="white">
            <use xlink:href="#path-13"></use>
        </mask>
        <rect id="path-15" x="0" y="0" width="86" height="42"></rect>
        <path d="M141,97.0001499 C141,95.8954976 141.893354,95 142.999221,95 L225.000779,95 C226.104918,95 227,95.8966603 227,96.9974922 L227,135.002508 C227,136.105692 226.106646,137 225.000779,137 L142.999221,137 C141.895082,137 141,136.107872 141,135.009228 L141,116.237746 L141,111.048862 L141,97.0001499 Z" id="path-17"></path>
        <mask id="mask-18" maskContentUnits="userSpaceOnUse" maskUnits="objectBoundingBox" x="-2" y="-2" width="90" height="46">
            <rect x="139" y="93" width="90" height="46" fill="white"></rect>
            <use xlink:href="#path-17" fill="black"></use>
        </mask>
        <mask id="mask-20" maskContentUnits="userSpaceOnUse" maskUnits="objectBoundingBox" x="-2" y="-2" width="90" height="46">
            <rect x="139" y="93" width="90" height="46" fill="white"></rect>
            <use xlink:href="#path-17" fill="black"></use>
        </mask>
    </defs>
    <g id="Page-1" stroke="none" stroke-width="1" fill="none" fill-rule="evenodd">
        <g id="Group-7">
            <use id="Rectangle-13" stroke="#26252C" mask="url(#mask-2)" stroke-width="4" xlink:href="#path-1"></use>
            <use id="Rectangle-13" stroke="#26252C" mask="url(#mask-4)" stroke-width="4" xlink:href="#path-3"></use>
            <use id="Rectangle-7" stroke="#26252C" mask="url(#mask-6)" stroke-width="4" fill="#FFFFFF" xlink:href="#path-5"></use>
            <use id="Rectangle-8" stroke="#26252C" mask="url(#mask-8)" stroke-width="4" fill="#FFFFFF" xlink:href="#path-7"></use>
            <g id="Group-3" transform="translate(79.000000, 210.000000)" stroke="#26252C" stroke-width="2" fill="#FFFFFF">
                <circle id="Oval-2" cx="205" cy="13" r="7"></circle>
                <circle id="Oval-2" cx="181" cy="5" r="5"></circle>
                <circle id="Oval-2" cx="7" cy="13" r="7"></circle>
                <circle id="Oval-2" cx="31" cy="5" r="5"></circle>
            </g>
            <use id="Rectangle-9" stroke="#26252C" mask="url(#mask-10)" stroke-width="4" xlink:href="#path-9"></use>
            <use id="Rectangle-10" stroke="#26252C" mask="url(#mask-12)" stroke-width="4" fill="#FFFFFF" xlink:href="#path-11"></use>
            <use id="Rectangle-11" stroke="#26252C" mask="url(#mask-14)" stroke-width="4" fill="#FFFFFF" xlink:href="#path-13"></use>
            <rect id="Rectangle-12" fill="#DAD8E2" x="24" y="181" width="26" height="26" rx="6"></rect>
            <path d="M37.5416667,188.5 L36.025,188.5 L31.625,199.5 L32.9583333,199.5 L34.425,195.8 L39.3416667,195.8 L40.9583333,199.5 L42.375,199.5 L37.5416667,188.5 Z M36.7583333,189.9 L38.825,194.633333 L34.8916667,194.633333 L36.7583333,189.9 Z" id="A" stroke="#FFFFFF" fill="#FFFFFF"></path>
            <circle id="Oval-3" stroke="#1A171D" stroke-width="2" fill="#FFFFFF" cx="110" cy="116" r="21"></circle>
            <circle id="Oval-3" stroke="#1A171D" stroke-width="2" fill="#FFFFFF" cx="258" cy="116" r="21"></circle>
            <g id="Group-4" transform="translate(141.000000, 95.000000)">
                <mask id="mask-16" fill="white">
                    <use xlink:href="#path-15"></use>
                </mask>
                <use id="Mask" fill="#D8D8D8" xlink:href="#path-15"></use>
                <g mask="url(#mask-16)" stroke="#1A171D" id="Oval-3" stroke-width="2" fill="#FFFFFF">
                    <g transform="translate(-88.000000, -54.000000)">
                        <circle cx="56.5" cy="75.5" r="56.5"></circle>
                        <circle cx="56.5" cy="75.5" r="35.5"></circle>
                        <circle cx="205.5" cy="74.5" r="74.5"></circle>
                        <circle cx="205.5" cy="74.5" r="35.5"></circle>
                    </g>
                </g>
            </g>
            <g id="Group-6" transform="translate(237.000000, 93.000000)">
                <circle id="Oval-3" stroke="#1A171D" stroke-width="2" fill="#FFFFFF" cx="21" cy="22" r="21"></circle>
                <g id="Group-5" transform="translate(18.000000, 0.000000)" fill="#1A171D">
                    <rect id="Rectangle-14" x="0" y="0" width="6" height="8" rx="2"></rect>
                    <rect id="Rectangle-14" x="0" y="36" width="6" height="8" rx="2"></rect>
                </g>
                <g id="Group-5" transform="translate(21.000000, 22.000000) rotate(56.000000) translate(-21.000000, -22.000000) translate(18.000000, 0.000000)" fill="#1A171D">
                    <rect id="Rectangle-14" x="7.10542736e-15" y="-2.84217094e-14" width="6" height="8" rx="2"></rect>
                    <rect id="Rectangle-14" x="2.13162821e-14" y="36" width="6" height="8" rx="2"></rect>
                </g>
                <g id="Group-5" transform="translate(21.000000, 22.000000) rotate(119.000000) translate(-21.000000, -22.000000) translate(18.000000, 0.000000)" fill="#1A171D">
                    <rect id="Rectangle-14" x="0" y="0" width="6" height="8" rx="2"></rect>
                    <rect id="Rectangle-14" x="-3.41060513e-13" y="36" width="6" height="8" rx="2"></rect>
                </g>
            </g>
            <g id="Group-6" transform="translate(89.000000, 93.000000)">
                <circle id="Oval-3" stroke="#1A171D" stroke-width="2" fill="#FFFFFF" cx="21" cy="22" r="21"></circle>
                <g id="Group-5" transform="translate(18.000000, 0.000000)" fill="#1A171D">
                    <rect id="Rectangle-14" x="0" y="0" width="6" height="8" rx="2"></rect>
                    <rect id="Rectangle-14" x="0" y="36" width="6" height="8" rx="2"></rect>
                </g>
                <g id="Group-5" transform="translate(21.000000, 22.000000) rotate(56.000000) translate(-21.000000, -22.000000) translate(18.000000, 0.000000)" fill="#1A171D">
                    <rect id="Rectangle-14" x="0" y="0" width="6" height="8" rx="2"></rect>
                    <rect id="Rectangle-14" x="0" y="36" width="6" height="8" rx="2"></rect>
                </g>
                <g id="Group-5" transform="translate(21.000000, 22.000000) rotate(119.000000) translate(-21.000000, -22.000000) translate(18.000000, 0.000000)" fill="#1A171D">
                    <rect id="Rectangle-14" x="0" y="0" width="6" height="8" rx="2"></rect>
                    <rect id="Rectangle-14" x="-3.41060513e-13" y="36" width="6" height="8" rx="2"></rect>
                </g>
            </g>
            <mask id="mask-19" fill="white">
                <use xlink:href="#path-17"></use>
            </mask>
            <g id="Mask" stroke="#1A171D" mask="url(#mask-18)" stroke-width="4">
                <use mask="url(#mask-20)" xlink:href="#path-17"></use>
            </g>
        </g>
    </g>
</svg>