<?xml version="1.0" encoding="utf-8"?>
<!-- Generator: Adobe Illustrator 15.1.0, SVG Export Plug-In . SVG Version: 6.00 Build 0)  -->
<!DOCTYPE svg PUBLIC "-//W3C//DTD SVG 1.1//EN" "http://www.w3.org/Graphics/SVG/1.1/DTD/svg11.dtd">
<svg version="1.1" id="Layer_1" xmlns="http://www.w3.org/2000/svg" xmlns:xlink="http://www.w3.org/1999/xlink" x="0px" y="0px"
	 width="40px" height="40px" viewBox="0 0 40 40" enable-background="new 0 0 40 40" xml:space="preserve">
<title>Group 52</title>
<desc>Created with Sketch.</desc>
<g transform="translate(13.000000, 11.000000)">
	<g id="XMLID_1_">
		<g>
			<polygon points="18.54,-6.52 22.78,-2.27 20.47,0.04 16.23,-4.2 			"/>
			<polygon fill="#FEFEFE" points="18.35,2.16 -1.97,22.47 -6.21,18.23 14.1,-2.08 			"/>
			<polygon points="-7.69,20.99 -4.82,23.87 -9.11,25.11 			"/>
			<path d="M-9.11,25.11l4.29-1.24l-2.87-2.88L-9.11,25.11z M-6.21,18.23l4.24,4.239L18.35,2.16L14.1-2.08L-6.21,18.23z M20.47,0.04
				l2.311-2.31l-4.24-4.25L16.23-4.2L20.47,0.04z M25.96-1.21l-4.43,4.43L-0.91,25.66l-0.01,0.01c-0.06,0.061-0.12,0.11-0.19,0.16
				c-0.01,0.01-0.02,0.01-0.03,0.02c-0.07,0.051-0.14,0.091-0.22,0.12C-1.4,25.99-1.43,26-1.47,26.01
				c-0.03,0.01-0.05,0.021-0.08,0.03l-9.5,2.75c-0.13,0.04-0.28,0.06-0.42,0.06c-0.4,0-0.79-0.159-1.08-0.46
				c-0.39-0.409-0.52-0.989-0.33-1.52l3.13-9.13c0.01-0.021,0.01-0.04,0.03-0.061c0-0.01,0-0.029,0.01-0.04
				c0.03-0.08,0.07-0.149,0.12-0.22c0,0,0.01-0.01,0.02-0.03c0.05-0.069,0.11-0.14,0.17-0.21l0.01-0.01l0.02-0.02L13-5.22l0.09-0.09
				L17.48-9.7c0.579-0.58,1.529-0.58,2.119,0l6.36,6.37C26.55-2.75,26.55-1.8,25.96-1.21z"/>
		</g>
		<g>
		</g>
	</g>
</g>
</svg>
