<?xml version="1.0" encoding="utf-8"?>
<!-- Generator: Adobe Illustrator 15.1.0, SVG Export Plug-In . SVG Version: 6.00 Build 0)  -->
<!DOCTYPE svg PUBLIC "-//W3C//DTD SVG 1.1//EN" "http://www.w3.org/Graphics/SVG/1.1/DTD/svg11.dtd">
<svg version="1.1" id="Layer_1" xmlns="http://www.w3.org/2000/svg" xmlns:xlink="http://www.w3.org/1999/xlink" x="0px" y="0px"
	 width="40px" height="40px" viewBox="0 0 40 40" enable-background="new 0 0 40 40" xml:space="preserve">
<title>Group 52</title>
<desc>Created with Sketch.</desc>
<g id="Page-1">
	<g id="Group-52" transform="translate(-13.000000, -11.000000)">
		<g transform="translate(13.000000, 11.000000)">
			<polygon fill="#FEFEFE" points="35.78,8.73 33.47,11.04 29.23,6.8 31.54,4.48 			"/>
			<polygon fill="#FEFEFE" points="31.35,13.16 11.03,33.47 6.79,29.23 27.1,8.92 			"/>
			<path fill="none" d="M26,5.78c0.01-0.02,0.02-0.03,0.04-0.05c0.02-0.02,0.03-0.03,0.05-0.04"/>
			<polygon fill="#FEFEFE" points="8.18,34.87 3.89,36.11 5.31,31.99 			"/>
			<path d="M38.96,7.67L32.6,1.3c-0.59-0.58-1.54-0.58-2.119,0L26.09,5.69L26,5.78L3.63,28.15l-0.02,0.02L3.6,28.18
				c-0.06,0.07-0.12,0.141-0.17,0.21c-0.01,0.021-0.02,0.03-0.02,0.03c-0.05,0.07-0.09,0.14-0.12,0.22
				c-0.01,0.011-0.01,0.03-0.01,0.04C3.26,28.7,3.26,28.72,3.25,28.74l-3.13,9.13c-0.19,0.53-0.06,1.11,0.33,1.52
				c0.29,0.301,0.68,0.46,1.08,0.46c0.14,0,0.29-0.02,0.42-0.06l9.5-2.75c0.03-0.01,0.05-0.021,0.08-0.03
				c0.04-0.01,0.07-0.02,0.11-0.04c0.08-0.029,0.15-0.069,0.22-0.12c0.01-0.01,0.02-0.01,0.03-0.02c0.07-0.05,0.13-0.1,0.19-0.16
				l0.01-0.01l22.44-22.44l4.43-4.43C39.55,9.2,39.55,8.25,38.96,7.67z M3.89,36.11l1.42-4.12l2.87,2.88L3.89,36.11z M11.03,33.47
				L6.79,29.23L27.1,8.92l4.25,4.24L11.03,33.47z M33.47,11.04L29.23,6.8l2.31-2.32l4.24,4.25L33.47,11.04z"/>
			<path fill="none" d="M3.6,28.18c-0.07,0.061-0.12,0.13-0.17,0.21"/>
		</g>
	</g>
</g>
</svg>
